<svg xmlns="http://www.w3.org/2000/svg" viewBox="0 0 257.66 73.6"><defs><style>.cls-1{fill:#fff;}</style></defs><title>logo</title><g id="Layer_2" data-name="Layer 2"><g id="Layer_1-2" data-name="Layer 1"><polygon class="cls-1" points="3.79 13.02 11.31 13.02 15.1 6.48 11.31 0 3.79 0 0 6.48 3.79 13.02"/><path class="cls-1" d="M1.53,57.65V18.22h12V57.58h-12Z"/><path class="cls-1" d="M59.78,57.65h-12V35.52c0-2.63-.49-4.47-1.46-5.69a4.84,4.84,0,0,0-3.86-1.77,6.38,6.38,0,0,0-2.56.55,13.1,13.1,0,0,0-2.51,1.47,10.41,10.41,0,0,0-2.14,2.2A11.93,11.93,0,0,0,33.8,35V57.58h-12V18.22H32.58v6.6a14.53,14.53,0,0,1,6.18-5.44,20.53,20.53,0,0,1,9.17-1.9,12.12,12.12,0,0,1,6.17,1.41,10.23,10.23,0,0,1,3.61,3.61,14.83,14.83,0,0,1,1.71,4.82,38,38,0,0,1,.43,5.08V57.65Z"/><path class="cls-1" d="M92.73,28.55A24.86,24.86,0,0,0,84.85,30a9.81,9.81,0,0,0-5.08,4V57.65h-12V18.22h11v7.94A17.44,17.44,0,0,1,84,19.93a11.93,11.93,0,0,1,6.79-2.32H92a3,3,0,0,1,.73.06Zm16.94,29.83c-4,0-7.09-1.29-9.17-3.79s-3.12-6.24-3.12-11.13V18.22h12V40.77a9.32,9.32,0,0,0,1.41,5.5,4.74,4.74,0,0,0,4,1.9,9.26,9.26,0,0,0,4.65-1.28,10.89,10.89,0,0,0,4-4.41V18.22h12V44.07a4.26,4.26,0,0,0,.55,2.51,2.87,2.87,0,0,0,2,.86V57.58a22.9,22.9,0,0,1-2.94.49c-.79.06-1.52.13-2.2.13-4.27,0-6.72-1.66-7.33-5l-.25-2.38a15.9,15.9,0,0,1-6.72,5.74A20.4,20.4,0,0,1,109.67,58.38Zm60,0a15.25,15.25,0,0,1-7.83-1.9,12.35,12.35,0,0,1-5.07-5.25V73.6h-12V18.22h10.45v6.35a15.94,15.94,0,0,1,5.44-5.25,15.62,15.62,0,0,1,7.76-1.9A17.38,17.38,0,0,1,175.81,19a18.51,18.51,0,0,1,5.81,4.34,20.79,20.79,0,0,1,3.85,6.48,23.17,23.17,0,0,1,1.4,8A25.47,25.47,0,0,1,185.59,46,20.06,20.06,0,0,1,182,52.51a17.49,17.49,0,0,1-5.38,4.34A16.25,16.25,0,0,1,169.7,58.38Zm-4-10.15a7.63,7.63,0,0,0,3.55-.85A9.22,9.22,0,0,0,172,45.11a10.48,10.48,0,0,0,1.83-3.36,12.58,12.58,0,0,0,.61-4,10.76,10.76,0,0,0-.73-4,9.93,9.93,0,0,0-2-3.18,7.92,7.92,0,0,0-3-2.07,9.74,9.74,0,0,0-3.79-.74,8.72,8.72,0,0,0-4.77,1.47,9.34,9.34,0,0,0-3.48,3.91V41.2a11.92,11.92,0,0,0,3.66,5A8.1,8.1,0,0,0,165.66,48.23Zm52.14,7.28a55.56,55.56,0,0,1-5.68,2,23.33,23.33,0,0,1-6.42.92,15.23,15.23,0,0,1-4.22-.55,8.61,8.61,0,0,1-5.87-5,13,13,0,0,1-.85-4.89V27.32h-5v-9.1h5V5.69h12V18.22h8v9.1h-8V43.77a3.5,3.5,0,0,0,1,2.81,3.75,3.75,0,0,0,2.5.86A8.72,8.72,0,0,0,213,47a16.46,16.46,0,0,0,2.51-1Z"/><path class="cls-1" d="M222.33,45.6a2,2,0,1,0,2,2A2,2,0,0,0,222.33,45.6Zm0,2.63a.61.61,0,0,1-.61-.61.65.65,0,0,1,.61-.61.66.66,0,0,1,.61.61A.61.61,0,0,1,222.33,48.23Zm-2-18-.73-1.59,1-1.47,1.77.12.73,1.59-1,1.47Zm12.78,6.11-3.06,1-.67,3.18,2.38,2.14,3.06-1,.67-3.18Zm.55,4.28-1.59.49L230.89,40l.36-1.65,1.59-.49,1.22,1.1Zm4.89,9.78-2.81.92-.62,2.87,2.21,2,2.81-.92.61-2.87Zm.43,3.79-1.35.43-1-.92.31-1.34,1.34-.43,1,.92ZM250.63,31.3l-5.93,1.95-1.28,6.12,4.64,4.15,5.93-2,1.29-6.11Zm2.2,9.23L248.37,42l-3.49-3.12,1-4.59,4.46-1.46,3.49,3.11ZM241.71,25.37l-3.73-.8-2.51,2.82,1.16,3.6,3.73.8L242.87,29Zm-1.84,4.95-2.2-.49L237,27.69,238.47,26l2.2.49.67,2.14Zm-8.13-12.1-2.5.3-1,2.33,1.52,2.07,2.51-.3,1-2.33Zm-.43,3.11-1,.13-.62-.8.37-.92,1-.12.61.8ZM227.58,6.79l-2.44.67-.67,2.44,1.77,1.78,2.45-.68.67-2.44Zm.07,3.17-1,.25L226,9.54l.24-1,1-.25.67.68ZM254,4.28h-7.27l-3.67,6.3,3.67,6.29H254l3.67-6.29Zm-.79,11.31h-5.75l-2.87-4.95,2.87-4.95h5.75l2.87,5Z"/></g></g></svg>